<svg width="56" height="56" viewBox="0 0 56 56" fill="none" xmlns="http://www.w3.org/2000/svg">
<path
        d="M25.9831 24C25.9831 22.8954 26.8861 22 28 22C29.1139 22 30.0169 22.8954 30.0169 24V34C30.0169 35.1046 29.1139 36 28 36C26.8861 36 25.9831 35.1046 25.9831 34V24Z"
        fill="#D4D4D8"
    />
<path
        d="M28 38C26.8861 38 25.9831 38.8954 25.9831 40C25.9831 41.1046 26.8861 42 28 42C29.1139 42 30.0169 41.1046 30.0169 40C30.0169 38.8954 29.1139 38 28 38Z"
        fill="#D4D4D8"
    />
<path
        fill-rule="evenodd"
        clip-rule="evenodd"
        d="M31.4934 8C29.9408 5.33333 26.0592 5.33333 24.5066 8L3.54644 44C1.99384 46.6667 3.93459 50 7.03981 50H48.9602C52.0654 50 54.0062 46.6667 52.4536 44L31.4934 8ZM50.7069 45L29.7467 9C28.9704 7.66667 27.0296 7.66667 26.2533 9L5.29313 45C4.51682 46.3333 5.4872 48 7.03981 48H48.9602C50.5128 48 51.4832 46.3333 50.7069 45Z"
        fill="#D4D4D8"
    />
</svg>
