<?xml version="1.0" encoding="UTF-8" standalone="no"?>
<!-- Created with Inkscape (http://www.inkscape.org/) -->

<svg
   version="1.1"
   id="svg2"
   xml:space="preserve"
   width="255.600"
   height="213"
   viewBox="0 0 255.600 213"
   sodipodi:docname="918e9cf89667f7ffd61ae7e99e4d2a03.eps"
   xmlns:inkscape="http://www.inkscape.org/namespaces/inkscape"
   xmlns:sodipodi="http://sodipodi.sourceforge.net/DTD/sodipodi-0.dtd"
   xmlns="http://www.w3.org/2000/svg"
   xmlns:svg="http://www.w3.org/2000/svg"><defs
     id="defs6" /><sodipodi:namedview
     id="namedview4"
     pagecolor="#ffffff"
     bordercolor="#666666"
     borderopacity="1.0"
     inkscape:pageshadow="2"
     inkscape:pageopacity="0.0"
     inkscape:pagecheckerboard="0" /><g
     id="g8"
     inkscape:groupmode="layer"
     inkscape:label="ink_ext_XXXXXX"
     transform="matrix(1.3333333,0,0,-1.3333333,0,2666.6553)"><g
       id="g10"
       transform="scale(0.1)"><g
         id="g12"
         transform="scale(1.47239)"><path
           d="M 16300,13583.3 H 0 V 0 h 16300 v 13583.3"
           style="fill:#ffffff;fill-opacity:0;fill-rule:evenodd;stroke:none"
           id="path14" /></g><g
         id="g16"
         transform="scale(1.20752)"><path
           d="m 14593.7,11528 c 0,0 1239.6,0 1473,-1166.7 233.3,-1166.7 -189.6,-1472.96 -189.6,-1472.96 0,0 -175,-525 -350,-743.76 -175,-218.75 -379.2,-510.42 -554.2,-787.51 -175,-277.08 -656.3,-933.35 -889.6,-845.84 -233.3,87.5 -481.3,466.67 -729.2,306.25 l -116.6,-160.42 c 0,0 306.2,-29.17 597.9,-233.34 0,0 -331.8,-254.38 -822,-406.76 -133.4,-41.17 -276.6,23.04 -334.5,149.98 -93.7,206.71 -204.9,528.04 -141.5,781.79 0,0 -364.5,612.51 -379.1,1035.43 0,0 -111,-432.94 271.3,-1068.64 0,0 -105.1,-583.12 205.5,-965.41 0,0 -970,-126.66 -1296.7,-126.66 0,0 303.4,723.34 256.7,991.68 l -583.9,782.51 -851.1,302.51 770,-385.01 560,-746.68 c 0,0 -380.8,-679.47 -328.5,-955.74 52.2,-276.27 -37.4,-403.21 -37.4,-403.21 l -679.4,-813.87 -15,104.53 -89.6,-89.6 c 0,0 -343.44,395.74 -365.84,821.34 0,0 343.44,261.34 418.14,373.34 l 14.9,283.74 -89.6,-209.07 c 0,0 -821.31,97.07 -1164.78,216.54 -343.48,119.47 -2038.28,494.41 -2785.69,275.65 C 5619.93,6153.36 5510.55,5916.38 4908.98,5551.79 4307.41,5187.2 4398.56,3947.6 4398.56,3473.64 H 3742.3 c 0,0 -54.69,802.09 255.21,984.38 0,0 273.44,947.94 182.29,1239.61 0,0 364.59,492.19 419.28,929.69 54.69,437.51 492.19,2023.47 492.19,2023.47 0,0 -305.04,19.44 -402.26,-126.39 -97.22,-145.84 -213.89,-369.45 -554.17,-408.34 0,0 -77.78,515.28 320.83,661.12 398.62,145.83 709.74,48.61 709.74,48.61 0,0 55.47,143.31 89.91,232.29 17.75,45.84 44.27,87.78 78.09,123.45 212.85,217.48 1059.69,1024.87 2078.92,1204.37 68.43,12.1 134.77,33.9 197.01,64.8 295.91,148.2 1171.28,600.4 1658.89,1000.1 593.07,486.1 583.35,272.3 583.35,272.3 0,0 1078.72,1430.8 2109.72,1380.5 1195.9,-58.3 2632.4,-1575.6 2632.4,-1575.6"
           style="fill:#000000;fill-opacity:0;fill-rule:evenodd;stroke:none"
           id="path18" /></g><path
         d="m 10282.7,7367.26 c 0,0 -1602.88,299.21 -2265.41,203.04 0,0 -181.66,-192.35 -374,-352.64 -192.35,-160.29 -149.61,-384.69 10.68,-1132.71 160.29,-748.01 21.37,-1335.74 21.37,-1335.74 0,0 42.75,-149.6 256.47,-203.03 0,0 -96.18,-351.69 74.8,-351.69 170.97,0 683.9,-97.12 983.1,148.65 0,0 -972.42,1357.12 -694.58,2137.19 0,0 277.83,213.72 737.33,299.21 459.49,85.48 544.98,363.32 544.98,363.32 l 170.98,-213.72 c 0,0 128.23,309.89 534.28,438.12"
         style="fill:#000000;fill-opacity:0;fill-rule:evenodd;stroke:none"
         id="path20" /><g
         id="g22"
         transform="scale(1.14835)"><path
           d="m 13768.9,6152.07 c 0,0 297.8,20.38 995.7,456.86 0,0 316.4,-391.72 418.7,-810.47 0,0 623.5,-390.83 791,-828.19 0,0 260.6,-241.94 325.7,-446.66 0,0 -623.5,-130.27 -865.4,-214.03 0,0 -121,195.42 -121,279.17 0,0 -465.2,539.72 -539.7,911.93 0,0 -642.1,390.83 -1005,651.39"
           style="fill:#000000;fill-opacity:0;fill-rule:evenodd;stroke:none"
           id="path24" /></g><path
         d="m 16039.5,12913.7 c 0,0 -960.1,813.9 -229.6,1502.7 0,0 -1189.6,-438.3 -333.9,-1899.3 0,0 109.8,-40.3 198.7,34.9 0,0 136.7,0 164.1,164.2 0,0 155.2,-1.7 200.7,197.5"
         style="fill:#ffffff;fill-opacity:0;fill-rule:evenodd;stroke:none"
         id="path26" /></g></g></svg>
