<svg width="100%" height="25" viewBox="0 0 655 200" fill="none" xmlns="http://www.w3.org/2000/svg">
<path d="M173.961 187.313C181.546 195.638 193.325 200 208.125 200C223.11 200 235.151 195.545 242.921 187.035C250.876 178.525 255 166.535 255 150.625C255 138.415 251.824 126.933 247.014 117.868C242.204 108.803 233.416 98.72 220.651 87.62C210.661 78.925 203.724 72.15 199.839 66.045C196.139 59.94 194.375 54.53 194.375 47.5C194.375 35.105 199.2 28.75 209.375 28.75C214.37 28.75 218.339 30.5725 220.929 33.7175C223.519 36.6775 225 41.465 225 48.125V58.125H253.75V50C253.75 34.275 249.881 22.34 242.296 14.015C234.896 5.505 223.99 0 209.375 0C194.575 0 183.189 5.505 175.419 14.015C167.649 22.34 163.75 34.02 163.75 49.375C163.75 60.66 166.261 69.12 171.256 78.185C176.251 87.065 185.039 97.055 197.619 108.155C207.609 116.85 214.454 124.343 218.154 130.633C221.854 136.738 224.375 144.36 224.375 152.5C224.375 159.345 222.941 164.465 220.166 167.61C217.576 170.57 213.93 171.25 208.75 171.25C198.205 171.25 191.25 165.705 191.25 153.125V139.375H162.5V151.25C162.5 166.975 166.376 178.803 173.961 187.313Z" fill="#E62D3C"/>
<path fill-rule="evenodd" clip-rule="evenodd" d="M1.07288e-05 2.5H46.25C61.975 2.5 73.3876 6.1625 80.6026 13.5625C87.8176 20.7775 91.25 32.0175 91.25 47.1875V54.7349C91.25 64.7249 89.7601 73.04 86.4301 79.33C83.2851 85.62 78.3826 90.1525 71.7226 92.9275V93.4825C86.8926 98.6625 94.375 111.92 94.375 133.75V150.625C94.375 165.61 90.5001 177.103 82.5451 185.058C74.7751 192.828 63.295 196.875 48.125 196.875H0L1.07288e-05 2.5ZM30.625 30L30.625 119.375H30.6526V169.375H48.125C53.49 169.375 57.4776 167.575 60.0676 164.8C62.6576 161.84 63.75 157.03 63.75 150V132.5C63.75 123.62 62.3801 117.902 59.2351 114.573C56.2751 111.058 51.405 109.375 44.375 109.375H43.125V81.8683C48.9209 81.7429 53.3244 79.8693 56.1826 76.8325C59.3276 73.6875 60.625 68.3375 60.625 60.9375V50.3125C60.625 43.2825 59.6051 38.075 57.0151 34.93C54.6101 31.785 50.99 30 45.625 30H30.625Z" fill="#E62D3C"/>
<path d="M143.75 2.5H113.125V196.875H143.75V2.5Z" fill="#E62D3C"/>
<path fill-rule="evenodd" clip-rule="evenodd" d="M320 200C305.015 200 293.286 195.545 285.331 187.035C277.376 178.525 273.75 166.165 273.75 150.625V48.75C273.75 33.21 277.376 21.275 285.331 12.765C293.286 4.255 305.015 0 320 0C334.985 0 346.196 4.255 354.151 12.765C362.106 21.275 366.25 33.2342 366.25 48.7742V151.25C366.25 166.79 362.106 178.525 354.151 187.035C346.196 195.545 334.985 200 320 200ZM320 172.5C330.545 172.5 335.625 165.89 335.625 153.125V46.875C335.625 34.11 330.545 27.5 320 27.5C309.455 27.5 304.375 34.11 304.375 46.875V153.125C304.375 165.89 309.455 172.5 320 172.5Z" fill="#E62D3C"/>
<path d="M384.989 2.5H424.375L454.375 118.125H455V2.5H482.5V196.875H450L413.125 54.375H412.5V196.875H384.989V2.5Z" fill="#E62D3C"/>
<path d="M624.375 2.5H655V196.875H624.375V2.5Z" fill="#E62D3C"/>
<path d="M573.75 2.5H533.125L501.25 196.875H528.75L535 159.375L539.375 131.875L552.052 53.75L564.688 131.875L575 196.875H605.625L573.75 2.5Z" fill="#E62D3C"/>
</svg>
